<?xml version="1.0" standalone="no"?>
<!DOCTYPE svg PUBLIC "-//W3C//DTD SVG 20010904//EN"
 "http://www.w3.org/TR/2001/REC-SVG-20010904/DTD/svg10.dtd">
<svg version="1.0" xmlns="http://www.w3.org/2000/svg"
 width="512.000000pt" height="512.000000pt" viewBox="0 0 512.000000 512.000000"
 preserveAspectRatio="xMidYMid meet">
<metadata>
Created by potrace 1.11, written by Peter Selinger 2001-2013
</metadata>
<g transform="translate(0.000000,512.000000) scale(0.100000,-0.100000)"
fill="#000000" stroke="none">
<path d="M2285 5109 c-191 -21 -450 -83 -632 -153 -806 -308 -1407 -1000
-1593 -1837 -53 -238 -73 -552 -51 -795 102 -1104 911 -2024 1992 -2264 238
-53 552 -73 795 -51 1104 102 2024 911 2264 1992 53 238 73 552 51 795 -87
941 -691 1762 -1566 2129 -182 77 -393 135 -612 171 -119 19 -518 27 -648 13z
m594 -334 c1222 -177 2068 -1307 1896 -2533 -56 -396 -238 -808 -487 -1103
l-37 -44 -285 285 -286 285 0 447 0 448 151 0 c83 0 159 4 169 10 28 15 42 66
27 99 -9 22 -1196 1102 -1365 1243 -41 34 -91 44 -146 28 -34 -9 -96 -60 -320
-262 l-278 -251 -409 409 c-225 225 -409 412 -409 416 0 4 37 36 83 71 340
266 730 420 1172 466 118 13 393 5 524 -14z m-1601 -1158 l402 -403 -289 -259
c-171 -154 -294 -271 -300 -287 -12 -34 3 -84 29 -98 10 -6 86 -10 169 -10
l151 0 0 -581 c0 -642 -2 -625 64 -672 30 -22 37 -22 336 -22 299 0 306 0 336
22 64 46 64 47 64 512 l0 421 207 0 208 0 112 -112 113 -113 0 -308 c0 -342 2
-356 64 -400 30 -22 37 -22 350 -24 l319 -1 206 -207 206 -206 -44 -37 c-300
-254 -689 -425 -1111 -488 -141 -22 -452 -24 -590 -5 -1250 170 -2109 1297
-1935 2538 45 320 170 651 348 918 53 79 166 225 175 225 4 0 188 -181 410
-403z"/>
</g>
</svg>
