<svg width="64" height="64" viewBox="0 0 64 64" fill="none" xmlns="http://www.w3.org/2000/svg">
<circle cx="32" cy="32" r="30" stroke="#EB5D60" stroke-width="4"/>
<path d="M28.0002 46V36H36.0002V46C36.0002 47.1 36.9002 48 38.0002 48H44.0002C45.1002 48 46.0002 47.1 46.0002 46V32H49.4002C50.3202 32 50.7602 30.86 50.0602 30.26L33.3402 15.2C32.5802 14.52 31.4202 14.52 30.6602 15.2L13.9402 30.26C13.2602 30.86 13.6802 32 14.6002 32H18.0002V46C18.0002 47.1 18.9002 48 20.0002 48H26.0002C27.1002 48 28.0002 47.1 28.0002 46Z" fill="#0D0D0D"/>
<rect x="8.66553" y="11.4939" width="4" height="62" transform="rotate(-45 8.66553 11.4939)" fill="#EB5D60"/>
</svg>
